<svg width="12" height="11" viewBox="0 0 12 11" fill="none" xmlns="http://www.w3.org/2000/svg">
<path d="M2.94639 0.451795C3.09246 -0.150598 3.9492 -0.150599 4.09528 0.451795L4.4972 2.10932C4.54935 2.32439 4.71728 2.49231 4.93235 2.54447L6.58987 2.94639C7.19227 3.09246 7.19227 3.9492 6.58987 4.09527L4.93235 4.4972C4.71728 4.54935 4.54935 4.71728 4.4972 4.93235L4.09528 6.58987C3.9492 7.19227 3.09246 7.19227 2.94639 6.58987L2.54447 4.93235C2.49231 4.71728 2.32439 4.54935 2.10932 4.4972L0.451795 4.09527C-0.150598 3.9492 -0.150598 3.09246 0.451795 2.94639L2.10932 2.54447C2.32439 2.49231 2.49231 2.32439 2.54447 2.10932L2.94639 0.451795Z" fill="#163DFE"/>
<path d="M7.7715 6.23636C7.86139 5.86566 8.38861 5.86566 8.4785 6.23636L8.72584 7.25638C8.75794 7.38873 8.86127 7.49207 8.99363 7.52416L10.0136 7.7715C10.3843 7.86139 10.3843 8.38861 10.0136 8.4785L8.99363 8.72584C8.86127 8.75794 8.75794 8.86127 8.72584 8.99363L8.4785 10.0136C8.38861 10.3843 7.86139 10.3843 7.7715 10.0136L7.52416 8.99363C7.49207 8.86127 7.38873 8.75794 7.25638 8.72584L6.23636 8.4785C5.86566 8.38861 5.86566 7.86139 6.23636 7.7715L7.25638 7.52416C7.38873 7.49207 7.49207 7.38873 7.52416 7.25638L7.7715 6.23636Z" fill="#163DFE"/>
<path d="M9.51801 0.385581C9.57701 0.142307 9.923 0.142306 9.98199 0.385581L10.1443 1.05497C10.1654 1.14182 10.2332 1.20964 10.32 1.2307L10.9894 1.39301C11.2327 1.452 11.2327 1.798 10.9894 1.85699L10.32 2.0193C10.2332 2.04036 10.1654 2.10818 10.1443 2.19503L9.98199 2.86442C9.923 3.10769 9.57701 3.10769 9.51801 2.86442L9.3557 2.19503C9.33464 2.10818 9.26682 2.04036 9.17997 2.0193L8.51058 1.85699C8.26731 1.798 8.26731 1.452 8.51058 1.39301L9.17997 1.2307C9.26682 1.20964 9.33464 1.14182 9.3557 1.05497L9.51801 0.385581Z" fill="#163DFE"/>
<path fill-rule="evenodd" clip-rule="evenodd" d="M9.75 0.504342L9.61752 1.05068C9.56457 1.26906 9.39406 1.43957 9.17568 1.49252L8.62934 1.625L9.17568 1.75748C9.39406 1.81043 9.56457 1.98094 9.61752 2.19932L9.75 2.74566L9.88248 2.19932C9.93543 1.98094 10.1059 1.81043 10.3243 1.75748L10.8707 1.625L10.3243 1.49252C10.1059 1.43957 9.93543 1.26906 9.88248 1.05068L9.75 0.504342ZM10.0151 0.208521C9.94771 -0.069507 9.55229 -0.0695067 9.48487 0.208521L9.29937 0.973532C9.2753 1.0728 9.1978 1.1503 9.09853 1.17437L8.33352 1.35987C8.05549 1.42729 8.05549 1.82271 8.33352 1.89013L9.09853 2.07563C9.1978 2.0997 9.2753 2.1772 9.29937 2.27647L9.48487 3.04148C9.55229 3.31951 9.94771 3.31951 10.0151 3.04148L10.2006 2.27647C10.2247 2.1772 10.3022 2.0997 10.4015 2.07563L11.1665 1.89013C11.4445 1.82271 11.4445 1.42729 11.1665 1.35987L10.4015 1.17437C10.3022 1.1503 10.2247 1.0728 10.2006 0.973532L10.0151 0.208521Z" fill="#163DFE"/>
</svg>
